# xmcd
#
# Track frame offsets:
#	150
#	15443
#	39020
#	59449
#	76937
#	96770
#	109251
#	126698
#	143212
#	158957
#	175387
#	197720
#
# Disc length: 2815
#
# Revision: 1
# Processed by: cddbd v1.5.1PL0 Copyright (c) Steve Scherf et al.
# Submitted via: CDex 1.51
# Normalized: r0:DSETVAR1
#
DISCID=9f0afd0c
DTITLE=Various Artist - Today's County Hits - Disc 6
DYEAR=2002
DGENRE=Country
TTITLE0=Chad Brock - Yes
TTITLE1=Dixie Chicks - Cold Day In July
TTITLE2=Faith Hill and Tim McGraw - Just To Hear You Say That You Love Me
TTITLE3=Garth Brooks - Standing Outside the Fire
TTITLE4=Gary Allen - Smoke Rings In The Dark
TTITLE5=Joe Diffie - Texas Size Heartache
TTITLE6=Kenny Chesney - You Had Me From Hello
TTITLE7=LeAnn Womack - I'll Think Of A Reason
TTITLE8=Lonestar - Tell Her That You Love Her
TTITLE9=Tammy Cochran - Angels In Waiting
TTITLE10=Tim McGraw - Please Remember Me
TTITLE11=Tracy Lawrence - Lessons Learned
EXTD=YEAR: 2002
EXTT0=
EXTT1=
EXTT2=
EXTT3=
EXTT4=
EXTT5=
EXTT6=
EXTT7=
EXTT8=
EXTT9=
EXTT10=
EXTT11=
PLAYORDER=
